<?xml version="1.0" encoding="UTF-8" standalone="no"?>
<svg
   xmlns:dc="http://purl.org/dc/elements/1.1/"
   xmlns:cc="http://creativecommons.org/ns#"
   xmlns:rdf="http://www.w3.org/1999/02/22-rdf-syntax-ns#"
   xmlns:svg="http://www.w3.org/2000/svg"
   xmlns="http://www.w3.org/2000/svg"
   xmlns:sodipodi="http://sodipodi.sourceforge.net/DTD/sodipodi-0.dtd"
   xmlns:inkscape="http://www.inkscape.org/namespaces/inkscape"
   width="69.10701mm"
   height="25.024002mm"
   viewBox="0 0 69.107009 25.024001"
   version="1.1"
   id="svg864"
   sodipodi:docname="issuefab-l10.svg"
   inkscape:version="1.0.2 (394de47547, 2021-03-26)">
  <metadata
     id="metadata9">
    <rdf:RDF>
      <cc:Work
         rdf:about="">
        <dc:format>image/svg+xml</dc:format>
        <dc:type
           rdf:resource="http://purl.org/dc/dcmitype/StillImage" />
        <dc:title />
      </cc:Work>
    </rdf:RDF>
  </metadata>
  <defs
     id="defs7" />
  <sodipodi:namedview
     pagecolor="#ffffff"
     bordercolor="#666666"
     borderopacity="1"
     objecttolerance="10"
     gridtolerance="10"
     guidetolerance="10"
     inkscape:pageopacity="0"
     inkscape:pageshadow="2"
     inkscape:window-width="2560"
     inkscape:window-height="1403"
     id="namedview5"
     showgrid="false"
     lock-margins="true"
     fit-margin-top="5.03"
     fit-margin-left="5.03"
     fit-margin-right="5.03"
     fit-margin-bottom="5.03"
     inkscape:zoom="3.8421444"
     inkscape:cx="189.25044"
     inkscape:cy="51.506816"
     inkscape:window-x="0"
     inkscape:window-y="0"
     inkscape:window-maximized="1"
     inkscape:current-layer="svg864"
     inkscape:document-rotation="0" />
  <g
     id="g1072"
     style="opacity:0.99"
     transform="matrix(0.76317431,0,0,0.76317431,-45.490794,-149.13325)">
    <path
       id="path1108"
       style="fill:#ffa600;fill-opacity:1;stroke-width:0.496443"
       d="m 72.905837,204.43043 c -2.322097,0 -4.204909,1.07355 -4.204909,2.3983 0,0.99401 1.060233,1.84686 2.570384,2.21072 0.475618,0.50804 0.829702,3.56574 1.025261,6.14536 h -5.769674 v 1.3286 h 12.757362 v -1.3286 h -5.769673 c 0.195566,-2.57962 0.550158,-5.63732 1.025776,-6.14536 1.510152,-0.36386 2.569869,-1.21671 2.569869,-2.21072 0,-1.32475 -1.882302,-2.3983 -4.204396,-2.3983 z" />
    <path
       id="path1112"
       style="fill:#000000;fill-opacity:1;stroke:none;stroke-width:0.992889"
       d="m 72.890851,202.00267 c -3.698362,0.005 -6.692606,1.89858 -6.692614,4.2323 a 6.7067069,6.1433799 0 0 0 0,0.004 6.7067069,6.1433799 0 0 0 5.491654,6.03684 c -0.03025,-0.2448 -0.0606,-0.4902 -0.09353,-0.71882 -0.08802,-0.61108 -0.185708,-1.15384 -0.288872,-1.56632 -0.09942,-0.39752 -0.231928,-0.66372 -0.262517,-0.70589 -2.06984,-0.47458 -3.445785,-1.68504 -3.445785,-3.04065 0,-0.003 0,-0.007 0,-0.0103 2.65e-4,-0.0557 0.0028,-0.11089 0.0078,-0.16588 2.64e-4,-0.004 0.0011,-0.009 0.0016,-0.0129 0.0048,-0.0506 0.01111,-0.10095 0.01963,-0.15089 0.0013,-0.008 0.0038,-0.0158 0.0052,-0.0238 0.0085,-0.0467 0.01778,-0.0935 0.02946,-0.13953 1.32e-4,-5.3e-4 5.29e-4,-10e-4 5.29e-4,-10e-4 0.02715,-0.10662 0.06278,-0.21127 0.106452,-0.31419 0.0016,-0.004 0.0044,-0.008 0.0062,-0.0129 0.02045,-0.0475 0.04179,-0.0946 0.06563,-0.14108 0.0016,-0.003 0.0038,-0.006 0.0052,-0.009 0.02474,-0.0478 0.05089,-0.0948 0.07906,-0.14159 0.119557,-0.19849 0.269454,-0.38777 0.447,-0.56586 0.04434,-0.0445 0.09029,-0.0882 0.137978,-0.13126 0.04724,-0.0427 0.09636,-0.0849 0.146759,-0.12609 0.01405,-0.0115 0.02912,-0.0223 0.04341,-0.0336 0.03766,-0.0299 0.0749,-0.0598 0.114205,-0.0889 0.0093,-0.007 0.01961,-0.0134 0.02894,-0.0202 0.04558,-0.0332 0.09134,-0.0662 0.13901,-0.0982 0.0571,-0.0383 0.1157,-0.0755 0.175699,-0.11213 0.05961,-0.0364 0.120552,-0.0723 0.182936,-0.10697 0.01677,-0.009 0.03471,-0.0177 0.05167,-0.0269 0.04627,-0.025 0.09235,-0.0503 0.140044,-0.0744 0.02931,-0.0148 0.05956,-0.0285 0.0894,-0.0429 0.03667,-0.0177 0.07314,-0.036 0.110588,-0.0532 0.05247,-0.024 0.10627,-0.047 0.160198,-0.0698 0.01543,-0.006 0.03045,-0.0132 0.04599,-0.0196 0.0547,-0.0226 0.1108,-0.0442 0.166915,-0.0656 0.01648,-0.006 0.03199,-0.013 0.04857,-0.0191 0.03563,-0.0132 0.07237,-0.0255 0.108522,-0.0382 0.03887,-0.0137 0.07729,-0.0277 0.116787,-0.0408 0.0088,-0.003 0.01802,-0.006 0.02687,-0.008 0.06588,-0.0216 0.132467,-0.0426 0.199986,-0.0625 0.03061,-0.009 0.06206,-0.0171 0.09302,-0.0258 0.04739,-0.0132 0.0945,-0.0268 0.142627,-0.0393 0.015,-0.004 0.03037,-0.007 0.04547,-0.0108 0.06485,-0.0163 0.129742,-0.0328 0.195856,-0.0475 0.08025,-0.0179 0.161382,-0.0345 0.243395,-0.0501 0.08309,-0.0158 0.166873,-0.0305 0.251664,-0.0439 0.06943,-0.0109 0.139829,-0.0203 0.210322,-0.0294 0.01561,-0.002 0.03086,-0.005 0.04651,-0.007 0.08628,-0.0108 0.173733,-0.0203 0.261482,-0.0284 5.29e-4,-5e-5 7.94e-4,5e-5 0.0016,0 0.05181,-0.005 0.104273,-0.008 0.156578,-0.0119 0.212847,-0.0159 0.429199,-0.0253 0.649058,-0.0253 h 5.29e-4 5.29e-4 c 0.09106,1e-5 0.181877,0.001 0.27182,0.004 0,0 5.29e-4,0 5.29e-4,0 0.09012,0.002 0.179842,0.007 0.268718,0.0124 0,0 5.3e-4,0 5.3e-4,0 0.0361,0.002 0.07158,0.006 0.107487,0.008 0.141443,0.0106 0.281831,0.0231 0.419613,0.0403 0.01566,0.002 0.0309,0.004 0.04651,0.007 0.07049,0.009 0.14038,0.0186 0.209807,0.0295 0.08479,0.0134 0.16909,0.028 0.25218,0.0439 0.08227,0.0156 0.163422,0.0326 0.243914,0.0506 0.0588,0.0132 0.116861,0.0275 0.174664,0.0419 0.02204,0.006 0.04427,0.0103 0.06615,0.016 0.04811,0.0125 0.09526,0.026 0.142629,0.0393 0.03096,0.009 0.06239,0.0168 0.09302,0.0258 0.06754,0.0199 0.134086,0.0409 0.199988,0.0625 0.0089,0.003 0.01805,0.006 0.02687,0.008 0.03113,0.0103 0.06124,0.0213 0.09198,0.032 0.04498,0.0156 0.0902,0.0311 0.134358,0.0475 0.07128,0.0265 0.141301,0.0537 0.210323,0.0822 7.94e-4,2.6e-4 0.0016,5.3e-4 0.0026,0.001 7.93e-4,5.3e-4 0.0013,0.001 0.0026,0.001 0.06884,0.0284 0.136609,0.058 0.203088,0.0884 0.03667,0.0167 0.07208,0.0344 0.108003,0.0517 0.03221,0.0155 0.06502,0.0305 0.09664,0.0465 0.02551,0.0129 0.04981,0.0266 0.07493,0.0398 0.03822,0.02 0.07693,0.0403 0.114204,0.061 0.06238,0.0346 0.12331,0.0701 0.182936,0.10645 0.06,0.0366 0.118602,0.0738 0.175699,0.11214 0.04836,0.0325 0.09539,0.0661 0.141595,0.0997 0.0086,0.006 0.01778,0.0123 0.02635,0.0186 0.05371,0.0397 0.105968,0.0802 0.156578,0.12144 0.05103,0.0416 0.10002,0.084 0.147796,0.12713 0.04769,0.043 0.09414,0.0873 0.138491,0.13177 0.04446,0.0446 0.08667,0.0894 0.127643,0.13539 0.122716,0.13765 0.229727,0.28115 0.31936,0.42995 0.02815,0.0468 0.05435,0.0943 0.07906,0.14211 0.0016,0.003 0.0038,0.006 0.0052,0.009 0.02387,0.0466 0.04515,0.0942 0.06563,0.14159 0.0016,0.004 0.0045,0.008 0.0062,0.0124 0.02188,0.0516 0.04163,0.10402 0.05943,0.15658 0.01744,0.0514 0.0326,0.10277 0.04599,0.15503 2.64e-4,0.001 0.0011,0.003 0.0016,0.004 0.01167,0.046 0.02098,0.0928 0.02946,0.13953 0.0013,0.008 0.0038,0.0158 0.0052,0.0238 0.0085,0.0499 0.01487,0.10032 0.01963,0.1509 5.29e-4,0.004 0.0011,0.009 0.0016,0.0129 0.0048,0.055 0.0075,0.1102 0.0078,0.16588 1.3e-5,0.003 0,0.007 0,0.0103 0,1.35547 -1.37577,2.56544 -3.445267,3.04012 -0.03042,0.0418 -0.162483,0.30851 -0.262001,0.70642 -0.103161,0.41248 -0.201366,0.95523 -0.289388,1.56631 -0.03293,0.22862 -0.06277,0.47402 -0.09302,0.71882 a 6.7067069,6.1433799 0 0 0 5.489588,-6.04098 c -2.3e-5,-2.33372 -2.993736,-4.22729 -6.692098,-4.23229 z m -5.850287,11.90057 c -0.284488,0 -0.513665,0.22917 -0.513665,0.51366 v 0.44493 h 5.417241 c -0.02609,-0.31987 -0.04933,-0.63402 -0.07958,-0.95859 z m 6.90707,0 c -0.03025,0.32456 -0.05335,0.63873 -0.07958,0.95859 h 5.416209 v -0.44493 c 0,-0.28449 -0.229177,-0.51366 -0.513665,-0.51366 z m -7.420735,2.93315 v 4.26019 c 0,0.28451 0.229172,0.51369 0.513665,0.51367 h 11.730032 c 0.284493,0 0.513665,-0.22916 0.513665,-0.51367 v -4.26019 z m 70.757551,-11.96493 -2.17246,0.35928 v 13.80693 h 3.68067 c 0.74207,0 1.40644,-0.11364 1.99292,-0.3411 0.58654,-0.22742 1.08322,-0.5566 1.49019,-0.98752 0.41893,-0.43089 0.73616,-0.94557 0.95163,-1.54405 0.22739,-0.61047 0.34112,-1.29271 0.34112,-2.04681 0,-0.73014 -0.0957,-1.39446 -0.2873,-1.99297 -0.17955,-0.61044 -0.44282,-1.13109 -0.78991,-1.56201 -0.34714,-0.43089 -0.78404,-0.76007 -1.31071,-0.98749 -0.5147,-0.23938 -1.10125,-0.35905 -1.75955,-0.35905 -0.4429,0 -0.84985,0.0537 -1.22095,0.16157 -0.35907,0.10765 -0.66431,0.22744 -0.91565,0.35912 z m 1.77754,6.21242 c 0.78998,0 1.36451,0.26933 1.72359,0.80797 0.37106,0.53863 0.55658,1.26874 0.55658,2.19039 0,0.95758 -0.22736,1.71172 -0.6822,2.26231 -0.45486,0.53864 -1.08329,0.80796 -1.88524,0.80796 -0.34713,0 -0.64639,-0.012 -0.89774,-0.0359 -0.2394,-0.0359 -0.43693,-0.0717 -0.59253,-0.10785 v -5.40425 c 0.19153,-0.13162 0.44292,-0.25133 0.75412,-0.35906 0.32319,-0.10785 0.66431,-0.16158 1.02342,-0.16158 z m -9.30893,-1.86721 c -0.39409,0.002 -0.75112,0.0306 -1.06815,0.0811 l -0.28212,1.70605 c 0.31965,0.0373 0.69636,0.0543 1.13485,0.0441 0.37104,0 0.67629,0.0479 0.91567,0.1436 0.25135,0.0957 0.44887,0.23341 0.59251,0.41294 0.15558,0.16756 0.26329,0.36509 0.32316,0.59251 0.0599,0.22742 0.0897,0.46683 0.0897,0.71817 v 0.35906 c -0.29924,-0.0719 -0.5805,-0.11963 -0.84384,-0.1436 -0.26331,-0.0359 -0.51471,-0.0537 -0.75412,-0.0537 -0.5147,0 -1.0114,0.0537 -1.49019,0.16158 -0.4668,0.0957 -0.87972,0.26333 -1.23882,0.50271 -0.3591,0.22743 -0.64637,0.52669 -0.86183,0.89772 -0.2035,0.37107 -0.30525,0.82589 -0.30525,1.36453 0,0.56257 0.0897,1.03537 0.26936,1.41839 0.19153,0.38302 0.44882,0.6943 0.77198,0.93369 0.33513,0.23939 0.73614,0.41294 1.20295,0.52067 0.46685,0.10785 0.9815,0.16157 1.54407,0.16157 h 3.80639 v -6.10447 c 0,-0.55061 -0.0657,-1.05335 -0.19753,-1.50821 -0.11963,-0.46678 -0.32916,-0.86175 -0.62842,-1.18494 -0.28727,-0.32316 -0.67633,-0.57457 -1.16706,-0.75412 -0.49078,-0.17955 -1.09522,-0.26926 -1.81342,-0.26926 z m 0.43097,5.42219 c 0.27531,0 0.52664,0.018 0.75406,0.0537 0.22741,0.036 0.40098,0.0719 0.52065,0.10785 v 2.40585 c -0.34713,0.0719 -0.85579,0.10765 -1.52612,0.10765 -0.55058,0 -0.98749,-0.0959 -1.31068,-0.28728 -0.32314,-0.20349 -0.48476,-0.56253 -0.48476,-1.07721 0,-0.26333 0.0599,-0.47885 0.17955,-0.64641 0.11963,-0.17955 0.27533,-0.3172 0.46684,-0.41296 0.20348,-0.0957 0.42486,-0.16158 0.66427,-0.19753 0.25137,-0.0359 0.49679,-0.0537 0.73619,-0.0537 z m -4.21333,-9.71555 c -1.27605,0 -2.2302,0.34581 -2.86227,1.03752 -0.63209,0.67979 -0.95691,1.62199 -0.9481,2.82648 v 10.25036 h 2.1646 v -7.98965 h 2.662 l 0.3029,-1.83135 h -2.9649 v -0.39364 c 0,-0.29813 0.0297,-0.57243 0.0893,-0.82288 0.0595,-0.26235 0.16097,-0.48296 0.30414,-0.66185 0.14319,-0.17895 0.33391,-0.31606 0.57243,-0.41148 0.23853,-0.10745 0.53072,-0.16098 0.87657,-0.16098 0.31009,0 0.59635,0.0298 0.85872,0.0893 0.2335,0.0507 0.4408,0.11464 0.62247,0.19133 l 0.30019,-1.81545 c -0.17275,-0.0521 -0.39011,-0.10685 -0.65435,-0.16477 -0.38164,-0.0955 -0.82289,-0.143 -1.32381,-0.143 z m 2.9526,4.29336 -0.30288,1.83135 h 1.14216 l 0.21544,-1.83135 z m -12.08719,0 c -0.54862,0 -1.08523,0.10745 -1.60998,0.32198 -0.52476,0.20274 -0.98985,0.51277 -1.39534,0.93018 -0.40549,0.40549 -0.73349,0.91835 -0.98394,1.5385 -0.23851,0.62015 -0.3578,1.34166 -0.3578,2.16454 0,0.70364 0.0955,1.35363 0.28628,1.94991 0.19074,0.58438 0.483,1.09718 0.87657,1.53842 0.39353,0.42936 0.89438,0.7693 1.50261,1.01975 0.60823,0.23851 1.32387,0.35772 2.14675,0.35772 0.32201,0 0.63802,-0.018 0.94811,-0.0535 0.31007,-0.0358 0.59626,-0.0835 0.85864,-0.1432 0.22416,-0.0389 0.42312,-0.0821 0.59954,-0.12902 l 0.33069,-1.99972 c -0.25043,0.10745 -0.59634,0.20873 -1.03758,0.30413 -0.42936,0.0955 -0.90636,0.143 -1.4311,0.143 -0.89444,0 -1.58022,-0.20269 -2.05725,-0.60817 -0.46513,-0.4174 -0.72744,-1.00181 -0.78706,-1.75313 h 6.17163 c 0.0119,-0.11924 0.018,-0.25043 0.018,-0.39355 0.0119,-0.15499 0.018,-0.29221 0.018,-0.41146 0,-1.58616 -0.36371,-2.77872 -1.09119,-3.57777 -0.71556,-0.79904 -1.71737,-1.19856 -3.00538,-1.19856 z m 0.018,1.80674 c 0.32196,0 0.5963,0.0595 0.82288,0.17895 0.23851,0.10745 0.43535,0.26235 0.59038,0.46509 0.16696,0.19093 0.29218,0.42338 0.37569,0.69768 0.0835,0.26235 0.12522,0.54268 0.12522,0.84082 h -4.02506 c 0.0357,-0.2743 0.10126,-0.54264 0.19673,-0.80503 0.0955,-0.26236 0.22656,-0.4949 0.39353,-0.69766 0.17894,-0.20274 0.3936,-0.36377 0.64405,-0.48303 0.25045,-0.13121 0.54258,-0.19672 0.87651,-0.19672 z m -5.41881,8.01428 -3.82826,-0.018 c -0.75135,0 -1.38341,-0.10725 -1.8962,-0.32199 -0.50092,-0.21468 -0.90641,-0.51282 -1.21648,-0.89445 -0.29816,-0.38163 -0.51281,-0.83483 -0.64401,-1.35957 -0.13122,-0.53667 -0.19673,-1.12105 -0.19673,-1.75312 v -5.47404 h 2.16457 v 5.13415 c 0,1.00178 0.14319,1.71734 0.42931,2.14667 0.29817,0.42934 0.81098,0.64402 1.53847,0.64402 0.26239,0 0.53668,-0.012 0.8229,-0.0358 0.29816,-0.0238 0.51879,-0.0537 0.66189,-0.0895 v -7.79961 h 2.16459 z m -18.572076,-9.82102 c -1.085274,0 -1.943956,0.25037 -2.576028,0.75126 -0.63209,0.48898 -0.948111,1.16287 -0.948111,2.02155 0,0.44124 0.06551,0.81685 0.196728,1.12693 0.143195,0.29815 0.33393,0.55461 0.572439,0.76928 0.238526,0.21469 0.518854,0.40547 0.840816,0.57244 0.33393,0.15498 0.69766,0.30411 1.091232,0.44723 0.643997,0.23851 1.103153,0.45912 1.377449,0.66186 0.286218,0.20273 0.429357,0.45911 0.429357,0.76922 0,0.33391 -0.131219,0.57247 -0.393629,0.71559 -0.262333,0.13122 -0.679686,0.19673 -1.252146,0.19673 -0.572435,0 -1.085296,-0.0595 -1.538502,-0.17895 -0.441238,-0.11923 -0.822885,-0.2445 -1.144873,-0.37569 l -0.303474,1.83494 c 0.209587,0.0791 0.536789,0.17695 0.983259,0.29387 0.500919,0.1432 1.162752,0.21464 1.985637,0.21464 1.228379,0 2.170536,-0.2266 2.826476,-0.67979 0.667864,-0.46512 1.001794,-1.14487 1.001794,-2.03932 0,-0.41741 -0.05372,-0.77519 -0.160974,-1.07335 -0.107451,-0.29814 -0.280268,-0.56049 -0.518772,-0.78708 -0.226601,-0.23852 -0.51879,-0.44723 -0.876574,-0.62612 -0.357771,-0.19073 -0.793025,-0.38162 -1.305848,-0.57244 -0.310063,-0.10745 -0.572495,-0.20871 -0.787153,-0.30413 -0.214659,-0.10745 -0.387576,-0.20873 -0.518751,-0.30413 -0.131218,-0.10745 -0.226626,-0.22059 -0.28626,-0.33986 -0.04773,-0.11924 -0.0715,-0.25645 -0.0715,-0.41147 0,-0.31008 0.137207,-0.53669 0.411464,-0.67981 0.274332,-0.15498 0.632094,-0.23251 1.073354,-0.23251 0.48895,0 0.918289,0.0477 1.287973,0.143 0.369701,0.0835 0.673853,0.17895 0.912379,0.28618 l 5.6e-5,-2.8e-4 0.295669,-1.78791 c -0.246693,-0.0837 -0.589734,-0.16757 -1.029199,-0.25119 -0.500876,-0.10745 -1.025636,-0.16097 -1.574229,-0.16097 z m -4.734081,-4.29344 -2.253937,0.37276 v 13.74168 h 1.872774 l 0.381163,-2.30493 z m 11.511176,4.29344 c -1.085239,0 -1.943952,0.25037 -2.576028,0.75126 -0.632068,0.48898 -0.948128,1.16287 -0.948128,2.02155 0,0.44124 0.06551,0.81685 0.196723,1.12693 0.143195,0.29815 0.33393,0.55461 0.572456,0.76928 0.23853,0.21469 0.518833,0.40547 0.840821,0.57244 0.33393,0.15498 0.697659,0.30411 1.091193,0.44723 0.644011,0.23851 1.103187,0.45912 1.377484,0.66186 0.2862,0.20273 0.42935,0.45911 0.42935,0.76922 0,0.33391 -0.13121,0.57247 -0.39354,0.71559 -0.262367,0.13122 -0.679786,0.19673 -1.252242,0.19673 -0.57246,0 -1.0853,-0.0595 -1.538506,-0.17895 -0.27581,-0.0745 -0.528297,-0.15139 -0.757492,-0.23062 -0.09228,0.6287 -0.352228,1.20052 -0.761458,1.65398 l -0.0017,0.008 c 0.202734,0.0835 0.554577,0.19073 1.055453,0.322 0.500919,0.1432 1.162774,0.21465 1.985659,0.21465 1.228376,0 2.170556,-0.2266 2.826476,-0.67981 0.66784,-0.46511 1.0018,-1.14488 1.0018,-2.03934 0,-0.41739 -0.0537,-0.77517 -0.16097,-1.07332 -0.10745,-0.29816 -0.28025,-0.56049 -0.51876,-0.78709 -0.22662,-0.23852 -0.51879,-0.44721 -0.87657,-0.62612 -0.35781,-0.19074 -0.79303,-0.38161 -1.305867,-0.57244 -0.310092,-0.10745 -0.572502,-0.20871 -0.787161,-0.30413 -0.214662,-0.10745 -0.387575,-0.20871 -0.518754,-0.30411 -0.131214,-0.10726 -0.226623,-0.22062 -0.286257,-0.33987 -0.04773,-0.11923 -0.0715,-0.25646 -0.0715,-0.41148 0,-0.31009 0.137202,-0.53669 0.41146,-0.67981 0.274296,-0.15498 0.632072,-0.23249 1.073349,-0.23249 0.48895,0 0.91827,0.0478 1.28797,0.143 0.36972,0.0835 0.67387,0.17895 0.91239,0.28617 l 0.2957,-1.78813 c -0.24669,-0.0837 -0.58964,-0.16736 -1.0292,-0.25118 -0.50088,-0.10745 -1.02562,-0.16098 -1.574207,-0.16098 z" />
  </g>
</svg>
